<?xml version="1.0" encoding="UTF-8" standalone="no"?><!DOCTYPE svg PUBLIC "-//W3C//DTD SVG 1.1//EN" "http://www.w3.org/Graphics/SVG/1.1/DTD/svg11.dtd"><svg width="319px" height="389px" version="1.1" xmlns="http://www.w3.org/2000/svg" xmlns:xlink="http://www.w3.org/1999/xlink" xml:space="preserve" xmlns:serif="http://www.serif.com/" style="fill-rule:evenodd;clip-rule:evenodd;stroke-linejoin:round;stroke-miterlimit:2;"><g transform="matrix(0.75,0,0,0.75,-2420.22,-2355.2)"><g id="Artboard7" transform="matrix(0.818798,0,0,1,3453.77,1735.23)"><rect x="-276.998" y="1405.04" width="517.896" height="517.896" style="fill:none;"/><g transform="matrix(1.2213,0,0,1,-4074.39,-1681.12)"><path d="M3307.36,3545.82L3307.35,3545.83L3307.33,3545.84L3301.67,3548.99L3226.96,3514.64C3277.2,3479.33 3314.36,3426.64 3325.5,3356.44L3325.49,3354.53L3324.88,3352.77L3323.75,3351.28L3322.17,3350.21L3232.3,3308.89L3232.3,3141.23L3415.69,3225.56L3415.69,3325.91C3415.69,3361.39 3412.78,3443.37 3356.83,3505.69C3343.56,3520.47 3327.29,3534.14 3307.36,3545.82Z" style="fill:white;fill-opacity:0.5;"/></g></g></g></svg>