<?xml version="1.0" encoding="UTF-8" standalone="no"?><!DOCTYPE svg PUBLIC "-//W3C//DTD SVG 1.1//EN" "http://www.w3.org/Graphics/SVG/1.1/DTD/svg11.dtd"><svg width="319px" height="389px" version="1.1" xmlns="http://www.w3.org/2000/svg" xmlns:xlink="http://www.w3.org/1999/xlink" xml:space="preserve" xmlns:serif="http://www.serif.com/" style="fill-rule:evenodd;clip-rule:evenodd;stroke-linejoin:round;stroke-miterlimit:2;"><g transform="matrix(0.75,0,0,0.75,-2420.22,-2853.94)"><g id="Artboard7" transform="matrix(0.818798,0,0,1,3453.77,2400.21)"><rect x="-276.998" y="1405.04" width="517.896" height="517.896" style="fill:none;"/><clipPath id="_clip1"><rect x="-276.998" y="1405.04" width="517.896" height="517.896"/></clipPath><g clip-path="url(#_clip1)"><g transform="matrix(2.23625,0,0,1.83104,-556.903,-1471.56)"><path d="M300.203,1850.15C300.201,1850.15 300.183,1850.16 300.183,1850.16L300.173,1850.16L294.486,1853.34L254.527,1834.96C281.453,1816.41 302.111,1787.86 307.512,1748.11L307.485,1747.08L307.146,1746.14L306.533,1745.35L305.681,1744.78L257.379,1722.57L257.379,1631L356.758,1676.7L356.758,1731.51C356.758,1750.58 355.349,1795.92 324.894,1829.82C318.179,1837.29 310.048,1844.2 300.203,1850.15Z" style="fill:white;fill-opacity:0.75;"/></g><g transform="matrix(1.2213,0,0,1,-4218.09,-2400.21)"><path d="M3307.36,4210.8L3307.35,4210.81L3307.33,4210.82L3301.67,4213.98L3226.96,4179.62C3277.2,4144.31 3314.36,4091.62 3325.5,4021.43L3325.49,4019.51L3324.88,4017.75L3323.75,4016.27L3322.17,4015.2L3232.3,3973.87L3232.3,3806.21L3415.69,3890.54L3415.69,3990.9C3415.69,4026.38 3412.78,4108.36 3356.83,4170.67C3343.56,4185.46 3327.29,4199.13 3307.36,4210.8Z" style="fill:white;fill-opacity:0.75;"/></g></g></g></g></svg>