<?xml version="1.0" encoding="UTF-8" standalone="no"?><!DOCTYPE svg PUBLIC "-//W3C//DTD SVG 1.1//EN" "http://www.w3.org/Graphics/SVG/1.1/DTD/svg11.dtd"><svg width="1690px" height="268px" version="1.1" xmlns="http://www.w3.org/2000/svg" xmlns:xlink="http://www.w3.org/1999/xlink" xml:space="preserve" xmlns:serif="http://www.serif.com/" style="fill-rule:evenodd;clip-rule:evenodd;stroke-linejoin:round;stroke-miterlimit:2;"><g transform="matrix(0.75,0,0,0.75,0,-339.985)"><g id="Artboard8" transform="matrix(4.3502,0,0,0.689683,7010.47,-396.801)"><rect x="-1611.53" y="1232.62" width="517.896" height="517.896" style="fill:none;"/><g transform="matrix(0.428417,0,0,2.70225,-1756.9,-767.902)"><path d="M562.46,757.307L584.708,757.307L584.708,793.858L605.612,793.858L605.612,811.828L584.708,811.828L584.708,897.277C584.708,901.841 586.257,904.897 589.354,906.445C591.065,907.342 593.917,907.79 597.911,907.79C598.97,907.79 600.111,907.77 601.334,907.729C602.556,907.688 603.982,907.586 605.612,907.423L605.612,924.782C603.086,925.516 600.458,926.045 597.727,926.371C594.997,926.697 592.043,926.86 588.865,926.86C578.596,926.86 571.628,924.232 567.961,918.975C564.294,913.719 562.46,906.894 562.46,898.499L562.46,811.828L544.734,811.828L544.734,793.858L562.46,793.858L562.46,757.307Z" style="fill:white;fill-rule:nonzero;"/></g><g transform="matrix(0.428417,0,0,2.70225,-1756.9,-767.902)"><path d="M619.465,793.858L640.369,793.858L640.369,816.473C642.08,812.072 646.277,806.714 652.96,800.398C659.643,794.082 667.344,790.924 676.064,790.924C676.472,790.924 677.165,790.965 678.142,791.046C679.12,791.128 680.791,791.291 683.155,791.535L683.155,814.762C681.851,814.517 680.649,814.354 679.548,814.273C678.448,814.191 677.246,814.151 675.942,814.151C664.859,814.151 656.342,817.716 650.393,824.847C644.444,831.978 641.469,840.189 641.469,849.479L641.469,924.782L619.465,924.782L619.465,793.858Z" style="fill:white;fill-rule:nonzero;"/></g><g transform="matrix(0.428417,0,0,2.70225,-1756.9,-767.902)"><path d="M715.466,793.858L715.466,880.774C715.466,887.457 716.526,892.917 718.645,897.155C722.556,904.978 729.85,908.89 740.526,908.89C755.848,908.89 766.279,902.045 771.821,888.353C774.836,881.018 776.344,870.954 776.344,858.159L776.344,793.858L798.348,793.858L798.348,924.782L777.567,924.782L777.811,905.467C774.959,910.439 771.414,914.636 767.176,918.059C758.782,924.904 748.595,928.327 736.615,928.327C717.952,928.327 705.238,922.093 698.474,909.624C694.807,902.941 692.973,894.017 692.973,882.852L692.973,793.858L715.466,793.858Z" style="fill:white;fill-rule:nonzero;"/></g><g transform="matrix(0.428417,0,0,2.70225,-1756.9,-767.902)"><path d="M878.458,790.924C887.748,790.924 896.754,793.104 905.474,797.464C914.194,801.824 920.836,807.468 925.4,814.395C929.8,820.996 932.734,828.698 934.201,837.499C935.505,843.53 936.157,853.147 936.157,866.349L840.195,866.349C840.603,879.633 843.74,890.289 849.608,898.316C855.476,906.343 864.562,910.357 876.868,910.357C888.359,910.357 897.528,906.568 904.374,898.988C908.285,894.588 911.056,889.494 912.686,883.708L934.323,883.708C933.753,888.516 931.858,893.875 928.639,899.783C925.42,905.691 921.814,910.52 917.82,914.269C911.138,920.789 902.866,925.19 893.005,927.471C887.707,928.775 881.717,929.427 875.035,929.427C858.735,929.427 844.922,923.498 833.594,911.641C822.266,899.783 816.602,883.178 816.602,861.826C816.602,840.8 822.307,823.726 833.716,810.605C845.126,797.485 860.039,790.924 878.458,790.924ZM913.542,848.868C912.645,839.333 910.567,831.713 907.307,826.008C901.277,815.414 891.212,810.116 877.113,810.116C867.007,810.116 858.532,813.763 851.686,821.057C844.84,828.351 841.214,837.622 840.806,848.868L913.542,848.868Z" style="fill:white;fill-rule:nonzero;"/></g><g transform="matrix(0.428417,0,0,2.70225,-1756.9,-767.902)"><path d="M1033.01,740.315C1055.75,740.315 1073.4,746.305 1085.95,758.285C1098.5,770.265 1105.46,783.875 1106.85,799.114L1083.13,799.114C1080.44,787.542 1075.09,778.374 1067.06,771.609C1059.03,764.845 1047.77,761.463 1033.26,761.463C1015.57,761.463 1001.29,767.677 990.412,780.105C979.532,792.534 974.092,811.583 974.092,837.255C974.092,858.281 979.002,875.334 988.823,888.414C998.643,901.494 1013.29,908.035 1032.77,908.035C1050.7,908.035 1064.35,901.148 1073.72,887.375C1078.69,880.122 1082.4,870.587 1084.85,858.77L1108.56,858.77C1106.44,877.677 1099.43,893.528 1087.54,906.323C1073.27,921.726 1054.04,929.427 1029.84,929.427C1008.97,929.427 991.451,923.111 977.271,910.479C958.608,893.773 949.276,867.979 949.276,833.098C949.276,806.612 956.285,784.893 970.303,767.942C985.461,749.524 1006.37,740.315 1033.01,740.315Z" style="fill:white;fill-rule:nonzero;"/></g><g transform="matrix(0.428417,0,0,2.70225,-1756.9,-767.902)"><path d="M1126.45,744.593L1148.45,744.593L1148.45,811.583C1153.67,804.982 1158.35,800.337 1162.51,797.648C1169.6,793.002 1178.44,790.68 1189.04,790.68C1208.03,790.68 1220.9,797.322 1227.67,810.605C1231.33,817.859 1233.17,827.923 1233.17,840.8L1233.17,924.782L1210.55,924.782L1210.55,842.267C1210.55,832.65 1209.33,825.601 1206.88,821.119C1202.89,813.947 1195.39,810.361 1184.39,810.361C1175.27,810.361 1166.99,813.499 1159.58,819.774C1152.16,826.049 1148.45,837.907 1148.45,855.347L1148.45,924.782L1126.45,924.782L1126.45,744.593Z" style="fill:white;fill-rule:nonzero;"/></g><g transform="matrix(0.428417,0,0,2.70225,-1756.9,-767.902)"><path d="M1273.79,889.942C1273.79,896.299 1276.12,901.311 1280.76,904.978C1285.41,908.646 1290.91,910.479 1297.26,910.479C1305.01,910.479 1312.5,908.686 1319.76,905.101C1331.98,899.151 1338.09,889.413 1338.09,875.884L1338.09,858.159C1335.4,859.87 1331.94,861.296 1327.7,862.437C1323.46,863.578 1319.31,864.393 1315.23,864.882L1301.91,866.594C1293.92,867.653 1287.93,869.324 1283.94,871.606C1277.17,875.436 1273.79,881.548 1273.79,889.942ZM1327.09,845.445C1332.14,844.793 1335.53,842.674 1337.24,839.088C1338.21,837.133 1338.7,834.321 1338.7,830.654C1338.7,823.156 1336.04,817.716 1330.7,814.334C1325.36,810.952 1317.72,809.261 1307.78,809.261C1296.29,809.261 1288.14,812.358 1283.33,818.551C1280.64,821.974 1278.89,827.068 1278.07,833.832L1257.53,833.832C1257.94,817.696 1263.18,806.47 1273.24,800.154C1283.31,793.838 1294.98,790.68 1308.27,790.68C1323.67,790.68 1336.18,793.613 1345.79,799.481C1355.33,805.349 1360.1,814.477 1360.1,826.864L1360.1,902.289C1360.1,904.571 1360.57,906.405 1361.5,907.79C1362.44,909.175 1364.42,909.868 1367.43,909.868C1368.41,909.868 1369.51,909.807 1370.73,909.685C1371.95,909.563 1373.26,909.379 1374.64,909.135L1374.64,925.393C1371.22,926.371 1368.61,926.982 1366.82,927.227C1365.03,927.471 1362.58,927.594 1359.49,927.594C1351.91,927.594 1346.41,924.904 1342.98,919.526C1341.19,916.673 1339.93,912.639 1339.19,907.423C1334.71,913.291 1328.27,918.385 1319.88,922.704C1311.48,927.023 1302.24,929.183 1292.13,929.183C1279.99,929.183 1270.06,925.495 1262.36,918.12C1254.66,910.744 1250.81,901.515 1250.81,890.431C1250.81,878.288 1254.6,868.875 1262.18,862.193C1269.76,855.51 1279.7,851.394 1292.01,849.846L1327.09,845.445Z" style="fill:white;fill-rule:nonzero;"/></g><g transform="matrix(0.428417,0,0,2.70225,-1756.9,-767.902)"><path d="M1391.8,757.307L1414.05,757.307L1414.05,793.858L1434.95,793.858L1434.95,811.828L1414.05,811.828L1414.05,897.277C1414.05,901.841 1415.6,904.897 1418.69,906.445C1420.4,907.342 1423.26,907.79 1427.25,907.79C1428.31,907.79 1429.45,907.77 1430.67,907.729C1431.89,907.688 1433.32,907.586 1434.95,907.423L1434.95,924.782C1432.42,925.516 1429.8,926.045 1427.07,926.371C1424.34,926.697 1421.38,926.86 1418.2,926.86C1407.93,926.86 1400.97,924.232 1397.3,918.975C1393.63,913.719 1391.8,906.894 1391.8,898.499L1391.8,811.828L1374.07,811.828L1374.07,793.858L1391.8,793.858L1391.8,757.307Z" style="fill:white;fill-rule:nonzero;"/></g><g transform="matrix(0.428417,0,0,2.70225,-1756.9,-767.902)"><path d="M1461.27,883.708C1461.92,891.042 1463.76,896.666 1466.77,900.578C1472.31,907.668 1481.93,911.213 1495.62,911.213C1503.77,911.213 1510.94,909.44 1517.14,905.895C1523.33,902.35 1526.43,896.869 1526.43,889.453C1526.43,883.83 1523.94,879.551 1518.97,876.618C1515.79,874.825 1509.52,872.747 1500.15,870.383L1482.66,865.982C1471.5,863.211 1463.27,860.115 1457.97,856.692C1448.52,850.742 1443.79,842.511 1443.79,831.998C1443.79,819.611 1448.25,809.587 1457.18,801.926C1466.1,794.265 1478.1,790.435 1493.18,790.435C1512.9,790.435 1527.12,796.221 1535.84,807.794C1541.3,815.129 1543.95,823.034 1543.79,831.509L1523.01,831.509C1522.6,826.538 1520.85,822.015 1517.75,817.94C1512.7,812.154 1503.93,809.261 1491.47,809.261C1483.15,809.261 1476.86,810.85 1472.58,814.028C1468.3,817.207 1466.16,821.404 1466.16,826.62C1466.16,832.324 1468.97,836.888 1474.6,840.311C1477.86,842.348 1482.66,844.141 1489.02,845.69L1503.57,849.235C1519.38,853.065 1529.97,856.773 1535.35,860.359C1543.91,865.982 1548.19,874.825 1548.19,886.886C1548.19,898.54 1543.77,908.605 1534.92,917.081C1526.08,925.556 1512.61,929.794 1494.52,929.794C1475.05,929.794 1461.25,925.373 1453.14,916.531C1445.03,907.688 1440.69,896.747 1440.12,883.708L1461.27,883.708Z" style="fill:white;fill-rule:nonzero;"/></g><g transform="matrix(0.269107,0,0,1.6974,-1645.21,-1395.35)"><path d="M300.203,1850.15C300.201,1850.15 300.183,1850.16 300.183,1850.16L300.173,1850.16L294.486,1853.34L254.527,1834.96C281.453,1816.41 302.111,1787.86 307.512,1748.11L307.485,1747.08L307.146,1746.14L306.533,1745.35L305.681,1744.78L257.379,1722.57L257.379,1631L356.758,1676.7L356.758,1731.51C356.758,1750.58 355.349,1795.92 324.894,1829.82C318.179,1837.29 310.048,1844.2 300.203,1850.15ZM169.076,1792.51C169.075,1792.51 169.058,1792.52 169.058,1792.52L165.967,1794.24L125.167,1775.48C152.605,1756.2 172.897,1727.42 178.983,1689.08L178.976,1688.04L178.645,1687.08L178.027,1686.27L177.162,1685.68L128.082,1663.11L128.082,1571.55L228.24,1617.6L228.24,1672.41C228.24,1691.79 226.651,1736.56 196.096,1770.59C188.846,1778.67 179.961,1786.13 169.076,1792.51Z" style="fill:white;"/></g><g transform="matrix(0.269107,0,0,1.6974,-1644.77,-1374.51)"><path d="M330.79,1819.89C330.78,1819.89 330.771,1819.89 330.761,1819.9C329.72,1820.46 330.007,1821.37 330.515,1822.1L329.998,1822.39C329.925,1822.26 329.867,1822.12 329.828,1821.97C329.621,1821.17 329.977,1820.34 330.695,1819.94L328.634,1821.09C359.815,1785.78 361.492,1739.01 361.492,1719.23L361.492,1662.37L361.36,1661.47L360.987,1660.65L360.401,1659.97L359.632,1659.47L259.578,1613.46L270.617,1607.31L291.95,1595.4L394.385,1642.51L394.385,1697.31C394.385,1721.55 392.124,1788.29 330.789,1819.88L330.79,1819.89ZM202.234,1760.81L202.217,1760.82L202.177,1760.84L199.337,1762.42C231.105,1726.91 232.973,1680.33 232.973,1660.13L232.973,1603.28L232.842,1602.37L232.468,1601.55L231.882,1600.87L231.113,1600.38L130.281,1554.01L162.654,1535.95L265.866,1583.41L265.866,1602.64L250.973,1610.95L250.941,1610.97L250.837,1611.03L250.806,1611.05L250.19,1611.56L249.727,1612.2L249.436,1612.94L249.334,1613.74L249.334,1712.34L249.416,1713.05L249.576,1713.51C240.211,1731.33 225.455,1748.46 202.234,1760.81Z" style="fill:white;"/></g></g></g></svg>